<svg xmlns="http://www.w3.org/2000/svg" version="1.1" xmlns:xlink="http://www.w3.org/1999/xlink" xmlns:svgjs="http://svgjs.dev/svgjs" width="1200" height="100" preserveAspectRatio="none" viewBox="0 0 1200 100"><g mask="url(&quot;#SvgjsMask1056&quot;)" fill="none"><rect width="1200" height="100" x="0" y="0" fill="rgba(29, 138, 255, 1)"></rect><path d="M 0,13 C 18.6,20.4 55.8,49.6 93,50 C 130.2,50.4 148.8,17.4 186,15 C 223.2,12.6 241.8,37 279,38 C 316.2,39 334.8,22 372,20 C 409.2,18 427.8,28.2 465,28 C 502.2,27.8 520.8,17.4 558,19 C 595.2,20.6 613.8,35.8 651,36 C 688.2,36.2 706.8,19.2 744,20 C 781.2,20.8 799.8,40 837,40 C 874.2,40 892.8,21.8 930,20 C 967.2,18.2 985.8,34 1023,31 C 1060.2,28 1080.6,5.6 1116,5 C 1151.4,4.4 1183.2,23.4 1200,28L1200 100L0 100z" fill="#184a7e"></path><path d="M 0,86 C 24,82.8 72,67.8 120,70 C 168,72.2 192,100 240,97 C 288,94 312,54.8 360,55 C 408,55.2 432,96.6 480,98 C 528,99.4 552,65.6 600,62 C 648,58.4 672,80.8 720,80 C 768,79.2 792,58.4 840,58 C 888,57.6 912,76.4 960,78 C 1008,79.6 1032,64.2 1080,66 C 1128,67.8 1176,82.8 1200,87L1200 100L0 100z" fill="rgba(12, 55, 101, 1)"></path></g><defs><mask id="SvgjsMask1056"><rect width="1200" height="100" fill="#ffffff"></rect></mask></defs></svg>