<svg xmlns="http://www.w3.org/2000/svg" version="1.1" xmlns:xlink="http://www.w3.org/1999/xlink" xmlns:svgjs="http://svgjs.dev/svgjs" width="1200" height="100" preserveAspectRatio="none" viewBox="0 0 1200 100"><g mask="url(&quot;#SvgjsMask1021&quot;)" fill="none"><rect width="1200" height="100" x="0" y="0" fill="rgba(29, 138, 255, 1)"></rect><path d="M 0,42 C 48,38 144,21.6 240,22 C 336,22.4 384,46.6 480,44 C 576,41.4 624,9.2 720,9 C 816,8.8 864,40.8 960,43 C 1056,45.2 1152,24.6 1200,20L1200 100L0 100z" fill="#184a7e"></path><path d="M 0,98 C 80,91.6 240,67.6 400,66 C 560,64.4 640,88.6 800,90 C 960,91.4 1120,76.4 1200,73L1200 100L0 100z" fill="rgba(12, 55, 101, 1)"></path></g><defs><mask id="SvgjsMask1021"><rect width="1200" height="100" fill="#ffffff"></rect></mask></defs></svg>